# xmcd
#
# Track frame offsets: 
#        150
#        7907
#        26147
#        45710
#        67310
#        90826
#        110509
#        124816
#        146670
#        159137
#        178187
#        195059
#
# Disc length: 2806 seconds
#
# Revision: 0
# Processed by: cddbd v1.5.1PL0 Copyright (c) Steve Scherf et al.
# Submitted via: ExactAudioCopy v0.95b1
#
DISCID=960af40c
DTITLE=Sepiatone - Darksummer
DYEAR=2005
DGENRE=Avantgarde
TTITLE0=Ektachrome
TTITLE1=Greenhouse
TTITLE2=Unnatural Fire
TTITLE3=Disguise
TTITLE4=Saboteur
TTITLE5=Defenceless
TTITLE6=C'è Dio
TTITLE7=From So Hi
TTITLE8=Darksummer
TTITLE9=Di Fianco
TTITLE10=Inside the Sun
TTITLE11=Twilightone
EXTD=DSV09 - www.sepiatone.net
EXTT0=
EXTT1=
EXTT2=
EXTT3=
EXTT4=
EXTT5=
EXTT6=
EXTT7=
EXTT8=
EXTT9=
EXTT10=
EXTT11=
PLAYORDER=
